<mxfile host="app.diagrams.net" modified="2021-04-09T09:17:24.306Z" agent="5.0 (Macintosh; Intel Mac OS X 11_2_3) AppleWebKit/537.36 (KHTML, like Gecko) Chrome/89.0.4389.114 Safari/537.36" etag="fFfyzV30A6ph8mnViveY" version="14.5.7" type="github">
  <diagram id="E9HXeMG74-5QaU4fr3EY" name="Page-1">
    <mxGraphModel dx="854" dy="509" grid="1" gridSize="10" guides="1" tooltips="1" connect="1" arrows="1" fold="1" page="1" pageScale="1" pageWidth="827" pageHeight="1169" math="0" shadow="0">
      <root>
        <mxCell id="0" />
        <mxCell id="1" parent="0" />
        <mxCell id="Fbjv7WMuDCAKRBCm3zKG-14" style="edgeStyle=none;rounded=0;orthogonalLoop=1;jettySize=auto;html=1;exitX=0.25;exitY=1;exitDx=0;exitDy=0;entryX=0.915;entryY=-0.033;entryDx=0;entryDy=0;entryPerimeter=0;fontSize=20;" edge="1" parent="1" source="Fbjv7WMuDCAKRBCm3zKG-2" target="Fbjv7WMuDCAKRBCm3zKG-3">
          <mxGeometry relative="1" as="geometry" />
        </mxCell>
        <mxCell id="Fbjv7WMuDCAKRBCm3zKG-15" style="edgeStyle=none;rounded=0;orthogonalLoop=1;jettySize=auto;html=1;exitX=0.75;exitY=1;exitDx=0;exitDy=0;entryX=0.331;entryY=-0.033;entryDx=0;entryDy=0;entryPerimeter=0;fontSize=20;" edge="1" parent="1" source="Fbjv7WMuDCAKRBCm3zKG-2" target="Fbjv7WMuDCAKRBCm3zKG-4">
          <mxGeometry relative="1" as="geometry" />
        </mxCell>
        <mxCell id="Fbjv7WMuDCAKRBCm3zKG-2" value="FilterMenuWrapper&lt;br&gt;" style="rounded=1;whiteSpace=wrap;html=1;fontSize=20;" vertex="1" parent="1">
          <mxGeometry x="350" y="230" width="260" height="60" as="geometry" />
        </mxCell>
        <mxCell id="Fbjv7WMuDCAKRBCm3zKG-3" value="SearchButton" style="rounded=1;whiteSpace=wrap;html=1;fontSize=20;" vertex="1" parent="1">
          <mxGeometry x="130" y="350" width="260" height="60" as="geometry" />
        </mxCell>
        <mxCell id="Fbjv7WMuDCAKRBCm3zKG-16" style="edgeStyle=none;rounded=0;orthogonalLoop=1;jettySize=auto;html=1;exitX=0.5;exitY=1;exitDx=0;exitDy=0;entryX=0.5;entryY=0;entryDx=0;entryDy=0;fontSize=20;" edge="1" parent="1" source="Fbjv7WMuDCAKRBCm3zKG-4" target="Fbjv7WMuDCAKRBCm3zKG-5">
          <mxGeometry relative="1" as="geometry" />
        </mxCell>
        <mxCell id="Fbjv7WMuDCAKRBCm3zKG-4" value="DropdownWrapper&lt;br&gt;" style="rounded=1;whiteSpace=wrap;html=1;fontSize=20;" vertex="1" parent="1">
          <mxGeometry x="610" y="350" width="260" height="60" as="geometry" />
        </mxCell>
        <mxCell id="Fbjv7WMuDCAKRBCm3zKG-17" style="edgeStyle=none;rounded=0;orthogonalLoop=1;jettySize=auto;html=1;exitX=0.25;exitY=1;exitDx=0;exitDy=0;fontSize=20;" edge="1" parent="1" source="Fbjv7WMuDCAKRBCm3zKG-5" target="Fbjv7WMuDCAKRBCm3zKG-6">
          <mxGeometry relative="1" as="geometry" />
        </mxCell>
        <mxCell id="Fbjv7WMuDCAKRBCm3zKG-18" style="edgeStyle=none;rounded=0;orthogonalLoop=1;jettySize=auto;html=1;exitX=0.75;exitY=1;exitDx=0;exitDy=0;entryX=0.477;entryY=-0.017;entryDx=0;entryDy=0;entryPerimeter=0;fontSize=20;" edge="1" parent="1" source="Fbjv7WMuDCAKRBCm3zKG-5" target="Fbjv7WMuDCAKRBCm3zKG-7">
          <mxGeometry relative="1" as="geometry" />
        </mxCell>
        <mxCell id="Fbjv7WMuDCAKRBCm3zKG-5" value="ControledForm&lt;br&gt;" style="rounded=1;whiteSpace=wrap;html=1;fontSize=20;" vertex="1" parent="1">
          <mxGeometry x="610" y="470" width="260" height="60" as="geometry" />
        </mxCell>
        <mxCell id="Fbjv7WMuDCAKRBCm3zKG-19" style="edgeStyle=none;rounded=0;orthogonalLoop=1;jettySize=auto;html=1;exitX=0.5;exitY=1;exitDx=0;exitDy=0;entryX=0.473;entryY=-0.05;entryDx=0;entryDy=0;entryPerimeter=0;fontSize=20;" edge="1" parent="1" source="Fbjv7WMuDCAKRBCm3zKG-6" target="Fbjv7WMuDCAKRBCm3zKG-8">
          <mxGeometry relative="1" as="geometry" />
        </mxCell>
        <mxCell id="Fbjv7WMuDCAKRBCm3zKG-6" value="DropdownMenu&lt;br&gt;" style="rounded=1;whiteSpace=wrap;html=1;fontSize=20;" vertex="1" parent="1">
          <mxGeometry x="370" y="640" width="260" height="60" as="geometry" />
        </mxCell>
        <mxCell id="Fbjv7WMuDCAKRBCm3zKG-20" style="edgeStyle=none;rounded=0;orthogonalLoop=1;jettySize=auto;html=1;exitX=0.5;exitY=1;exitDx=0;exitDy=0;entryX=0.5;entryY=0;entryDx=0;entryDy=0;fontSize=20;" edge="1" parent="1" source="Fbjv7WMuDCAKRBCm3zKG-7" target="Fbjv7WMuDCAKRBCm3zKG-9">
          <mxGeometry relative="1" as="geometry" />
        </mxCell>
        <mxCell id="Fbjv7WMuDCAKRBCm3zKG-7" value="DropdownList" style="rounded=1;whiteSpace=wrap;html=1;fontSize=20;" vertex="1" parent="1">
          <mxGeometry x="870" y="640" width="260" height="60" as="geometry" />
        </mxCell>
        <mxCell id="Fbjv7WMuDCAKRBCm3zKG-8" value="DropdownMenuButton&lt;br&gt;" style="rounded=1;whiteSpace=wrap;html=1;fontSize=20;" vertex="1" parent="1">
          <mxGeometry x="370" y="800" width="260" height="60" as="geometry" />
        </mxCell>
        <mxCell id="Fbjv7WMuDCAKRBCm3zKG-21" style="edgeStyle=none;rounded=0;orthogonalLoop=1;jettySize=auto;html=1;exitX=0.5;exitY=1;exitDx=0;exitDy=0;entryX=0.5;entryY=0;entryDx=0;entryDy=0;fontSize=20;" edge="1" parent="1" source="Fbjv7WMuDCAKRBCm3zKG-9" target="Fbjv7WMuDCAKRBCm3zKG-10">
          <mxGeometry relative="1" as="geometry" />
        </mxCell>
        <mxCell id="Fbjv7WMuDCAKRBCm3zKG-9" value="DropdownListItem&lt;br&gt;" style="rounded=1;whiteSpace=wrap;html=1;fontSize=20;" vertex="1" parent="1">
          <mxGeometry x="870" y="800" width="260" height="60" as="geometry" />
        </mxCell>
        <mxCell id="Fbjv7WMuDCAKRBCm3zKG-22" style="edgeStyle=none;rounded=0;orthogonalLoop=1;jettySize=auto;html=1;exitX=0.25;exitY=1;exitDx=0;exitDy=0;entryX=0.712;entryY=-0.033;entryDx=0;entryDy=0;entryPerimeter=0;fontSize=20;" edge="1" parent="1" source="Fbjv7WMuDCAKRBCm3zKG-10" target="Fbjv7WMuDCAKRBCm3zKG-11">
          <mxGeometry relative="1" as="geometry" />
        </mxCell>
        <mxCell id="Fbjv7WMuDCAKRBCm3zKG-23" style="edgeStyle=none;rounded=0;orthogonalLoop=1;jettySize=auto;html=1;exitX=0.75;exitY=1;exitDx=0;exitDy=0;entryX=0.338;entryY=-0.017;entryDx=0;entryDy=0;entryPerimeter=0;fontSize=20;" edge="1" parent="1" source="Fbjv7WMuDCAKRBCm3zKG-10" target="Fbjv7WMuDCAKRBCm3zKG-13">
          <mxGeometry relative="1" as="geometry" />
        </mxCell>
        <mxCell id="Fbjv7WMuDCAKRBCm3zKG-10" value="ListItem" style="rounded=1;whiteSpace=wrap;html=1;fontSize=20;" vertex="1" parent="1">
          <mxGeometry x="870" y="910" width="260" height="60" as="geometry" />
        </mxCell>
        <mxCell id="Fbjv7WMuDCAKRBCm3zKG-11" value="DropdownListLabel&lt;br&gt;" style="rounded=1;whiteSpace=wrap;html=1;fontSize=20;" vertex="1" parent="1">
          <mxGeometry x="690" y="1020" width="260" height="60" as="geometry" />
        </mxCell>
        <mxCell id="Fbjv7WMuDCAKRBCm3zKG-13" value="DropdownListInput&lt;br&gt;" style="rounded=1;whiteSpace=wrap;html=1;fontSize=20;" vertex="1" parent="1">
          <mxGeometry x="1080" y="1020" width="260" height="60" as="geometry" />
        </mxCell>
        <mxCell id="Fbjv7WMuDCAKRBCm3zKG-25" style="edgeStyle=none;rounded=0;orthogonalLoop=1;jettySize=auto;html=1;exitX=0.5;exitY=1;exitDx=0;exitDy=0;entryX=0.5;entryY=0;entryDx=0;entryDy=0;fontSize=20;" edge="1" parent="1" source="Fbjv7WMuDCAKRBCm3zKG-24" target="Fbjv7WMuDCAKRBCm3zKG-2">
          <mxGeometry relative="1" as="geometry" />
        </mxCell>
        <mxCell id="Fbjv7WMuDCAKRBCm3zKG-24" value="Filter" style="rounded=1;whiteSpace=wrap;html=1;fontSize=20;" vertex="1" parent="1">
          <mxGeometry x="420" y="90" width="120" height="70" as="geometry" />
        </mxCell>
      </root>
    </mxGraphModel>
  </diagram>
</mxfile>
